<svg xmlns="http://www.w3.org/2000/svg" width="280" height="200" viewBox="0 0 280 200" fill="none" aria-hidden="true">
  <rect x="48" y="36" width="184" height="128" rx="12" fill="#f5f5f5" stroke="#e5e5e5"/>
  <rect x="64" y="52" width="152" height="12" rx="6" fill="#d4d4d4"/>
  <rect x="64" y="74" width="120" height="8" rx="4" fill="#e5e5e5"/>
  <rect x="64" y="90" width="136" height="8" rx="4" fill="#e5e5e5"/>
  <rect x="64" y="106" width="104" height="8" rx="4" fill="#e5e5e5"/>
  <rect x="64" y="130" width="88" height="20" rx="10" fill="#111111"/>
  <rect x="36" y="48" width="184" height="128" rx="12" fill="#ffffff" stroke="#e5e5e5"/>
  <rect x="52" y="64" width="152" height="12" rx="6" fill="#111111" opacity="0.85"/>
  <rect x="52" y="86" width="120" height="8" rx="4" fill="#e5e5e5"/>
  <rect x="52" y="102" width="136" height="8" rx="4" fill="#e5e5e5"/>
  <rect x="52" y="118" width="104" height="8" rx="4" fill="#e5e5e5"/>
  <circle cx="220" cy="44" r="18" fill="#111111"/>
  <path d="M214 44h12M220 38v12" stroke="#fff" stroke-width="2" stroke-linecap="round"/>
</svg>
