<svg xmlns="http://www.w3.org/2000/svg" width="280" height="200" viewBox="0 0 280 200" fill="none" aria-hidden="true">
  <rect x="40" y="22" width="200" height="156" rx="12" fill="#ffffff" stroke="#e5e7eb"/>
  <rect x="56" y="38" width="52" height="18" rx="9" fill="#f5f5f5"/>
  <rect x="68" y="45" width="28" height="4" rx="2" fill="#6b7280"/>
  <rect x="56" y="66" width="168" height="12" rx="6" fill="#111111" opacity="0.88"/>
  <rect x="56" y="86" width="168" height="26" rx="8" fill="#f5f5f5" stroke="#e5e7eb"/>
  <circle cx="70" cy="99" r="6" stroke="#a3a3a3" stroke-width="2"/>
  <rect x="84" y="95" width="124" height="8" rx="4" fill="#d4d4d4"/>
  <rect x="56" y="118" width="168" height="26" rx="8" fill="#f5f5f5" stroke="#e5e7eb"/>
  <circle cx="70" cy="131" r="6" stroke="#a3a3a3" stroke-width="2"/>
  <rect x="84" y="127" width="108" height="8" rx="4" fill="#d4d4d4"/>
  <rect x="56" y="150" width="168" height="26" rx="8" fill="#111111"/>
  <circle cx="70" cy="163" r="6" fill="#ffffff"/>
  <path d="M67 163l2 2 5-6" stroke="#111111" stroke-width="1.5" stroke-linecap="round" stroke-linejoin="round"/>
  <rect x="84" y="159" width="116" height="8" rx="4" fill="#ffffff" opacity="0.92"/>
</svg>
